<mxfile host="app.diagrams.net" modified="2023-09-26T12:53:51.195Z" agent="Mozilla/5.0 (Windows NT 10.0; Win64; x64) AppleWebKit/537.36 (KHTML, like Gecko) Chrome/117.0.0.0 Safari/537.36" etag="D9skYg0EYg_tn-ALrN5d" version="21.8.2" type="device">
  <diagram name="Страница — 1" id="CuNzeYtsO5LG5YSS1-Ol">
    <mxGraphModel dx="783" dy="692" grid="1" gridSize="10" guides="1" tooltips="1" connect="1" arrows="1" fold="1" page="1" pageScale="1" pageWidth="1169" pageHeight="827" math="0" shadow="0">
      <root>
        <mxCell id="0" />
        <mxCell id="1" parent="0" />
        <mxCell id="p64gzMTPwt9XWlwHVPlz-1" value="User" style="swimlane;whiteSpace=wrap;html=1;" vertex="1" parent="1">
          <mxGeometry x="120" y="40" width="200" height="720" as="geometry" />
        </mxCell>
        <mxCell id="p64gzMTPwt9XWlwHVPlz-3" value="Fills the Login form" style="rounded=1;whiteSpace=wrap;html=1;arcSize=40;fontColor=#000000;fillColor=#ffffc0;strokeColor=#ff0000;" vertex="1" parent="p64gzMTPwt9XWlwHVPlz-1">
          <mxGeometry x="40" y="80" width="120" height="40" as="geometry" />
        </mxCell>
        <mxCell id="p64gzMTPwt9XWlwHVPlz-17" value="Proceeds to transaction" style="rounded=1;whiteSpace=wrap;html=1;arcSize=40;fontColor=#000000;fillColor=#ffffc0;strokeColor=#ff0000;" vertex="1" parent="p64gzMTPwt9XWlwHVPlz-1">
          <mxGeometry x="40" y="160" width="120" height="40" as="geometry" />
        </mxCell>
        <mxCell id="p64gzMTPwt9XWlwHVPlz-29" value="Fills register information" style="rounded=1;whiteSpace=wrap;html=1;arcSize=40;fontColor=#000000;fillColor=#ffffc0;strokeColor=#ff0000;" vertex="1" parent="p64gzMTPwt9XWlwHVPlz-1">
          <mxGeometry x="50" y="400" width="120" height="40" as="geometry" />
        </mxCell>
        <mxCell id="p64gzMTPwt9XWlwHVPlz-2" value="System Login Page" style="swimlane;whiteSpace=wrap;html=1;" vertex="1" parent="1">
          <mxGeometry x="320" y="40" width="360" height="720" as="geometry" />
        </mxCell>
        <mxCell id="p64gzMTPwt9XWlwHVPlz-6" value="Display login form" style="rounded=1;whiteSpace=wrap;html=1;arcSize=40;fontColor=#000000;fillColor=#ffffc0;strokeColor=#ff0000;" vertex="1" parent="p64gzMTPwt9XWlwHVPlz-2">
          <mxGeometry x="160" y="80" width="120" height="40" as="geometry" />
        </mxCell>
        <mxCell id="p64gzMTPwt9XWlwHVPlz-14" value="Information valid?" style="rhombus;whiteSpace=wrap;html=1;fontColor=#000000;fillColor=#ffffc0;strokeColor=#ff0000;" vertex="1" parent="p64gzMTPwt9XWlwHVPlz-2">
          <mxGeometry x="160" y="160" width="120" height="40" as="geometry" />
        </mxCell>
        <mxCell id="p64gzMTPwt9XWlwHVPlz-15" value="no" style="edgeStyle=orthogonalEdgeStyle;html=1;align=left;verticalAlign=bottom;endArrow=open;endSize=8;strokeColor=#ff0000;rounded=0;" edge="1" source="p64gzMTPwt9XWlwHVPlz-14" parent="p64gzMTPwt9XWlwHVPlz-2" target="p64gzMTPwt9XWlwHVPlz-19">
          <mxGeometry y="5" relative="1" as="geometry">
            <mxPoint x="275" y="180" as="targetPoint" />
            <Array as="points" />
            <mxPoint as="offset" />
          </mxGeometry>
        </mxCell>
        <mxCell id="p64gzMTPwt9XWlwHVPlz-19" value="Display &quot;Неправильный логин или пароль!&quot;" style="rounded=1;whiteSpace=wrap;html=1;arcSize=40;fontColor=#000000;fillColor=#ffffc0;strokeColor=#ff0000;" vertex="1" parent="p64gzMTPwt9XWlwHVPlz-2">
          <mxGeometry x="160" y="240" width="120" height="40" as="geometry" />
        </mxCell>
        <mxCell id="p64gzMTPwt9XWlwHVPlz-20" value="" style="edgeStyle=orthogonalEdgeStyle;html=1;verticalAlign=bottom;endArrow=open;endSize=8;strokeColor=#ff0000;rounded=0;" edge="1" source="p64gzMTPwt9XWlwHVPlz-19" parent="p64gzMTPwt9XWlwHVPlz-2" target="p64gzMTPwt9XWlwHVPlz-21">
          <mxGeometry relative="1" as="geometry">
            <mxPoint x="215" y="320" as="targetPoint" />
            <Array as="points" />
          </mxGeometry>
        </mxCell>
        <mxCell id="p64gzMTPwt9XWlwHVPlz-21" value="Try again&lt;br&gt;or sign up" style="rhombus;whiteSpace=wrap;html=1;fontColor=#000000;fillColor=#ffffc0;strokeColor=#ff0000;" vertex="1" parent="p64gzMTPwt9XWlwHVPlz-2">
          <mxGeometry x="160" y="320" width="120" height="40" as="geometry" />
        </mxCell>
        <mxCell id="p64gzMTPwt9XWlwHVPlz-22" value="Try again" style="edgeStyle=orthogonalEdgeStyle;html=1;align=left;verticalAlign=bottom;endArrow=open;endSize=8;strokeColor=#ff0000;rounded=0;" edge="1" source="p64gzMTPwt9XWlwHVPlz-21" parent="p64gzMTPwt9XWlwHVPlz-2" target="p64gzMTPwt9XWlwHVPlz-6">
          <mxGeometry x="-1" relative="1" as="geometry">
            <mxPoint x="295" y="340" as="targetPoint" />
            <mxPoint x="280" y="350" as="sourcePoint" />
            <Array as="points">
              <mxPoint x="300" y="340" />
              <mxPoint x="300" y="100" />
            </Array>
          </mxGeometry>
        </mxCell>
        <mxCell id="p64gzMTPwt9XWlwHVPlz-23" value="Sign up" style="edgeStyle=orthogonalEdgeStyle;html=1;align=left;verticalAlign=top;endArrow=open;endSize=8;strokeColor=#ff0000;rounded=0;" edge="1" source="p64gzMTPwt9XWlwHVPlz-21" parent="p64gzMTPwt9XWlwHVPlz-2" target="p64gzMTPwt9XWlwHVPlz-24">
          <mxGeometry x="-0.5" y="-20" relative="1" as="geometry">
            <mxPoint x="155" y="420" as="targetPoint" />
            <mxPoint as="offset" />
          </mxGeometry>
        </mxCell>
        <mxCell id="p64gzMTPwt9XWlwHVPlz-24" value="Display sign up form" style="rounded=1;whiteSpace=wrap;html=1;arcSize=40;fontColor=#000000;fillColor=#ffffc0;strokeColor=#ff0000;" vertex="1" parent="p64gzMTPwt9XWlwHVPlz-2">
          <mxGeometry x="160" y="400" width="120" height="40" as="geometry" />
        </mxCell>
        <mxCell id="p64gzMTPwt9XWlwHVPlz-26" value="" style="ellipse;html=1;shape=startState;fillColor=#000000;strokeColor=#ff0000;" vertex="1" parent="p64gzMTPwt9XWlwHVPlz-2">
          <mxGeometry x="205" y="30" width="30" height="30" as="geometry" />
        </mxCell>
        <mxCell id="p64gzMTPwt9XWlwHVPlz-27" value="" style="edgeStyle=orthogonalEdgeStyle;html=1;verticalAlign=bottom;endArrow=open;endSize=8;strokeColor=#ff0000;rounded=0;" edge="1" source="p64gzMTPwt9XWlwHVPlz-26" parent="p64gzMTPwt9XWlwHVPlz-2" target="p64gzMTPwt9XWlwHVPlz-6">
          <mxGeometry relative="1" as="geometry">
            <mxPoint x="215" y="90" as="targetPoint" />
          </mxGeometry>
        </mxCell>
        <mxCell id="p64gzMTPwt9XWlwHVPlz-28" value="" style="ellipse;html=1;shape=endState;fillColor=#000000;strokeColor=#ff0000;" vertex="1" parent="p64gzMTPwt9XWlwHVPlz-2">
          <mxGeometry x="205" y="680" width="30" height="30" as="geometry" />
        </mxCell>
        <mxCell id="p64gzMTPwt9XWlwHVPlz-31" value="Information valid?" style="rhombus;whiteSpace=wrap;html=1;fontColor=#000000;fillColor=#ffffc0;strokeColor=#ff0000;" vertex="1" parent="p64gzMTPwt9XWlwHVPlz-2">
          <mxGeometry x="10" y="495" width="120" height="40" as="geometry" />
        </mxCell>
        <mxCell id="p64gzMTPwt9XWlwHVPlz-33" value="no" style="edgeStyle=orthogonalEdgeStyle;html=1;align=left;verticalAlign=bottom;endArrow=open;endSize=8;strokeColor=#ff0000;rounded=0;" edge="1" parent="p64gzMTPwt9XWlwHVPlz-2" source="p64gzMTPwt9XWlwHVPlz-31" target="p64gzMTPwt9XWlwHVPlz-37">
          <mxGeometry x="-1" y="5" relative="1" as="geometry">
            <mxPoint x="140" y="510" as="targetPoint" />
            <mxPoint x="110" y="580" as="sourcePoint" />
            <Array as="points">
              <mxPoint x="130" y="515" />
            </Array>
            <mxPoint as="offset" />
          </mxGeometry>
        </mxCell>
        <mxCell id="p64gzMTPwt9XWlwHVPlz-34" value="yes" style="edgeStyle=orthogonalEdgeStyle;html=1;align=left;verticalAlign=top;endArrow=open;endSize=8;strokeColor=#ff0000;rounded=0;" edge="1" parent="p64gzMTPwt9XWlwHVPlz-2" source="p64gzMTPwt9XWlwHVPlz-31" target="p64gzMTPwt9XWlwHVPlz-35">
          <mxGeometry x="-0.0909" y="20" relative="1" as="geometry">
            <mxPoint x="80" y="500" as="targetPoint" />
            <mxPoint x="235" y="480" as="sourcePoint" />
            <Array as="points">
              <mxPoint x="70" y="620" />
            </Array>
            <mxPoint as="offset" />
          </mxGeometry>
        </mxCell>
        <mxCell id="p64gzMTPwt9XWlwHVPlz-35" value="Saves the information" style="rounded=1;whiteSpace=wrap;html=1;arcSize=40;fontColor=#000000;fillColor=#ffffc0;strokeColor=#ff0000;" vertex="1" parent="p64gzMTPwt9XWlwHVPlz-2">
          <mxGeometry x="160" y="600" width="120" height="40" as="geometry" />
        </mxCell>
        <mxCell id="p64gzMTPwt9XWlwHVPlz-36" value="" style="edgeStyle=orthogonalEdgeStyle;html=1;verticalAlign=bottom;endArrow=open;endSize=8;strokeColor=#ff0000;rounded=0;" edge="1" source="p64gzMTPwt9XWlwHVPlz-35" parent="p64gzMTPwt9XWlwHVPlz-2" target="p64gzMTPwt9XWlwHVPlz-6">
          <mxGeometry relative="1" as="geometry">
            <mxPoint x="220" y="540" as="targetPoint" />
            <Array as="points">
              <mxPoint x="340" y="620" />
              <mxPoint x="340" y="100" />
            </Array>
          </mxGeometry>
        </mxCell>
        <mxCell id="p64gzMTPwt9XWlwHVPlz-37" value="Display &quot;Пользователь уже существует&quot; or display &quot;Пароли не совпадают&quot;" style="rounded=1;whiteSpace=wrap;html=1;arcSize=40;fontColor=#000000;fillColor=#ffffc0;strokeColor=#ff0000;" vertex="1" parent="p64gzMTPwt9XWlwHVPlz-2">
          <mxGeometry x="160" y="470" width="120" height="90" as="geometry" />
        </mxCell>
        <mxCell id="p64gzMTPwt9XWlwHVPlz-38" value="" style="edgeStyle=orthogonalEdgeStyle;html=1;verticalAlign=bottom;endArrow=open;endSize=8;strokeColor=#ff0000;rounded=0;" edge="1" parent="p64gzMTPwt9XWlwHVPlz-2" source="p64gzMTPwt9XWlwHVPlz-37" target="p64gzMTPwt9XWlwHVPlz-24">
          <mxGeometry relative="1" as="geometry">
            <mxPoint x="-20" y="430" as="targetPoint" />
            <mxPoint x="170" y="430" as="sourcePoint" />
            <Array as="points">
              <mxPoint x="300" y="510" />
              <mxPoint x="300" y="420" />
            </Array>
          </mxGeometry>
        </mxCell>
        <mxCell id="p64gzMTPwt9XWlwHVPlz-13" value="" style="edgeStyle=orthogonalEdgeStyle;html=1;verticalAlign=bottom;endArrow=open;endSize=8;strokeColor=#ff0000;rounded=0;" edge="1" parent="1" source="p64gzMTPwt9XWlwHVPlz-6" target="p64gzMTPwt9XWlwHVPlz-3">
          <mxGeometry relative="1" as="geometry">
            <mxPoint x="430" y="230" as="targetPoint" />
            <mxPoint x="430" y="170" as="sourcePoint" />
          </mxGeometry>
        </mxCell>
        <mxCell id="p64gzMTPwt9XWlwHVPlz-4" value="" style="edgeStyle=orthogonalEdgeStyle;html=1;verticalAlign=bottom;endArrow=open;endSize=8;strokeColor=#ff0000;rounded=0;" edge="1" source="p64gzMTPwt9XWlwHVPlz-3" parent="1" target="p64gzMTPwt9XWlwHVPlz-14">
          <mxGeometry relative="1" as="geometry">
            <mxPoint x="220" y="220" as="targetPoint" />
            <Array as="points">
              <mxPoint x="220" y="180" />
              <mxPoint x="535" y="180" />
            </Array>
          </mxGeometry>
        </mxCell>
        <mxCell id="p64gzMTPwt9XWlwHVPlz-16" value="yes" style="edgeStyle=orthogonalEdgeStyle;html=1;align=left;verticalAlign=top;endArrow=open;endSize=8;strokeColor=#ff0000;rounded=0;" edge="1" source="p64gzMTPwt9XWlwHVPlz-14" parent="1" target="p64gzMTPwt9XWlwHVPlz-17">
          <mxGeometry x="0.0345" y="-20" relative="1" as="geometry">
            <mxPoint x="360" y="280" as="targetPoint" />
            <mxPoint x="359.5" y="220" as="sourcePoint" />
            <Array as="points">
              <mxPoint x="380" y="220" />
            </Array>
            <mxPoint as="offset" />
          </mxGeometry>
        </mxCell>
        <mxCell id="p64gzMTPwt9XWlwHVPlz-18" value="" style="edgeStyle=orthogonalEdgeStyle;html=1;verticalAlign=bottom;endArrow=open;endSize=8;strokeColor=#ff0000;rounded=0;" edge="1" source="p64gzMTPwt9XWlwHVPlz-17" parent="1" target="p64gzMTPwt9XWlwHVPlz-28">
          <mxGeometry relative="1" as="geometry">
            <mxPoint x="220" y="400" as="targetPoint" />
            <Array as="points">
              <mxPoint x="140" y="220" />
              <mxPoint x="140" y="735" />
            </Array>
          </mxGeometry>
        </mxCell>
        <mxCell id="p64gzMTPwt9XWlwHVPlz-25" value="" style="edgeStyle=orthogonalEdgeStyle;html=1;verticalAlign=bottom;endArrow=open;endSize=8;strokeColor=#ff0000;rounded=0;" edge="1" source="p64gzMTPwt9XWlwHVPlz-24" parent="1" target="p64gzMTPwt9XWlwHVPlz-29">
          <mxGeometry relative="1" as="geometry">
            <mxPoint x="420" y="460" as="targetPoint" />
            <mxPoint x="420" y="399.9999999999999" as="sourcePoint" />
          </mxGeometry>
        </mxCell>
        <mxCell id="p64gzMTPwt9XWlwHVPlz-30" value="" style="edgeStyle=orthogonalEdgeStyle;html=1;verticalAlign=bottom;endArrow=open;endSize=8;strokeColor=#ff0000;rounded=0;" edge="1" source="p64gzMTPwt9XWlwHVPlz-29" parent="1" target="p64gzMTPwt9XWlwHVPlz-31">
          <mxGeometry relative="1" as="geometry">
            <mxPoint x="220" y="460" as="targetPoint" />
            <Array as="points">
              <mxPoint x="220" y="500" />
            </Array>
          </mxGeometry>
        </mxCell>
      </root>
    </mxGraphModel>
  </diagram>
</mxfile>
